PathFileType	4	(X/Y/Z)	TVC_16_BWA3_walk_RCNL2025.trc
DataRate	CameraRate	NumFrames	NumMarkers	Units	OrigDataRate	OrigDataStartFrame	OrigNumFrames
100	100	8	27	mm	100	539	615
Frame#	Time	R_Shoulder			L_Shoulder			C7			J_Notch			R_Elbow			L_Elbow			R_Wrist			L_Wrist			R_Asis			L_Asis			R_Psis			L_Psis			Sacral			Thoracic			Sternum			R_Thigh_Lateral			R_Knee_Lateral			R_Shank_Lateral			R_Ankle_Lateral			R_Heel			R_Toe			L_Thigh_Lateral			L_Knee_Lateral			L_Shank_Lateral			L_Ankle_Lateral			L_Heel			L_Toe		
		X1	Y1	Z1	X2	Y2	Z2	X3	Y3	Z3	X4	Y4	Z4	X5	Y5	Z5	X6	Y6	Z6	X7	Y7	Z7	X8	Y8	Z8	X9	Y9	Z9	X10	Y10	Z10	X11	Y11	Z11	X12	Y12	Z12	X13	Y13	Z13	X14	Y14	Z14	X15	Y15	Z15	X16	Y16	Z16	X17	Y17	Z17	X18	Y18	Z18	X19	Y19	Z19	X20	Y20	Z20	X21	Y21	Z21	X22	Y22	Z22	X23	Y23	Z23	X24	Y24	Z24	X25	Y25	Z25	X26	Y26	Z26	X27	Y27	Z27
539	5.38000000	1375.100952	1290.966431	-126.747902	1356.833252	1283.422852	-449.308167	1314.259766	1345.416260	-278.237305	1435.656494	1201.917358	-281.548523	1276.675415	1004.402222	-18.997084	1369.485107	962.389526	-519.476746	1342.832764	783.960571	19.062674	1477.472961	776.217346	-471.647461	1379.784912	856.953186	-157.003860	1328.544312	874.787476	-418.070953	1194.909302	904.407715	-205.149780	1177.667236	905.946167	-310.702484	1186.288269	905.176941	-257.926132	1217.925171	1088.004761	-268.821106	1451.270508	1008.465820	-294.946991	1392.249756	602.642944	-41.527855	1479.770752	439.307922	-104.502045	1394.438965	313.591156	-34.453632	1245.347412	140.749603	-76.341476	1197.181030	153.672165	-125.724075	1335.062744	60.699501	-113.768021	1325.284668	584.377258	-499.021240	1389.829102	415.627930	-405.836304	1324.470581	271.123749	-457.185974	1274.713501	55.221848	-368.225372	1234.906372	55.519295	-318.199310	1410.868408	35.303406	-348.176819
540	5.39000000	1379.669922	1290.305664	-126.837151	1361.474365	1283.341553	-449.450409	1318.988647	1345.234131	-278.297546	1439.937744	1201.286743	-281.661987	1279.630371	1004.127625	-19.634441	1373.739380	962.388916	-520.193726	1343.594299	783.202942	19.396782	1481.815552	776.000916	-473.865707	1383.279419	856.684143	-157.938187	1331.129517	874.516663	-418.891785	1198.395874	904.531372	-205.594315	1180.902466	906.123840	-311.074097	1189.649170	905.327606	-258.334206	1221.827393	1088.104248	-269.141022	1454.952637	1007.839600	-295.272766	1393.115845	602.327271	-42.126358	1486.535645	441.668823	-104.462845	1405.542358	313.100586	-34.585560	1263.447998	134.489441	-77.330971	1214.804810	145.340759	-126.824760	1356.755493	58.837917	-114.767418	1327.404419	584.030212	-499.351562	1391.435547	415.169617	-406.289154	1325.452271	270.871613	-457.368835	1274.780396	55.252159	-368.220001	1235.002808	55.659698	-318.181732	1410.907715	35.279148	-348.219604
541	5.40000000	1384.282104	1289.628540	-126.826118	1366.025269	1283.309692	-449.485474	1323.711304	1345.054321	-278.217438	1444.210938	1200.670288	-281.713043	1282.713623	1003.826050	-20.172440	1377.843262	962.436523	-520.760315	1344.510925	782.436798	19.765718	1486.012878	775.845398	-475.943329	1386.791870	856.444092	-158.799850	1333.721069	874.282166	-419.618713	1201.918213	904.676880	-205.943130	1184.158569	906.328003	-311.346130	1193.038391	905.502441	-258.644630	1225.730835	1088.207031	-269.332916	1458.622314	1007.269348	-295.594086	1394.270020	602.194763	-42.684532	1492.683228	443.784698	-104.393791	1416.466064	312.265900	-34.727821	1282.198853	127.832314	-78.483742	1233.164917	136.573593	-128.080612	1378.893677	56.873619	-116.030327	1329.235840	583.707275	-499.635651	1392.930664	414.746429	-406.721039	1326.343384	270.646332	-457.549957	1274.840332	55.283524	-368.218872	1235.094604	55.794346	-318.173798	1410.944580	35.256733	-348.267700
542	5.41000000	1388.938599	1288.938232	-126.714897	1370.486450	1283.327637	-449.412445	1328.426514	1344.877075	-277.996857	1448.478027	1200.071899	-281.704407	1285.926636	1003.500793	-20.603577	1381.798218	962.535278	-521.186340	1345.600342	781.665588	20.165413	1490.064697	775.756165	-477.870483	1390.326294	856.217712	-159.583725	1336.329102	874.085876	-420.247437	1205.482056	904.839722	-206.192047	1187.441284	906.558105	-311.514343	1196.461670	905.698914	-258.853195	1229.640015	1088.311279	-269.393463	1462.289673	1006.755554	-295.912018	1395.822388	602.290222	-43.145565	1498.211060	445.608246	-104.314499	1427.164429	311.152618	-34.893127	1301.556763	120.939407	-79.769348	1252.235718	127.532356	-129.468445	1401.418213	54.945484	-117.475113	1330.789429	583.418579	-499.890930	1394.314819	414.357697	-407.139587	1327.145142	270.446960	-457.734344	1274.891968	55.314877	-368.223724	1235.182861	55.924095	-318.179413	1410.977783	35.236664	-348.320312
543	5.42000000	1393.640259	1288.236816	-126.503677	1374.859619	1283.393555	-449.230408	1333.133423	1344.701294	-277.635956	1452.740967	1199.494019	-281.638184	1289.270630	1003.153931	-20.920334	1385.608398	962.685730	-521.482544	1346.880005	780.891357	20.592554	1493.971680	775.734985	-479.637619	1393.887817	855.989685	-160.286438	1338.961426	873.928101	-420.774323	1209.092651	905.013733	-206.335648	1190.754639	906.811340	-311.573029	1199.923645	905.912537	-258.954338	1233.558960	1088.414185	-269.319641	1465.963989	1006.295837	-296.226654	1397.835938	602.628662	-43.459122	1503.128052	447.100433	-104.246765	1437.598877	309.827850	-35.093761	1321.461426	113.973648	-81.150581	1271.964966	118.381660	-130.953812	1424.263184	53.189117	-119.028259	1332.103760	583.176453	-500.131104	1395.593262	414.001251	-407.550903	1327.859863	270.272369	-457.925629	1274.934692	55.345566	-368.235657	1235.268555	56.050091	-318.201294	1411.005859	35.219341	-348.376465
544	5.43000000	1398.388062	1287.525513	-126.192863	1379.147217	1283.503906	-448.938293	1337.830444	1344.525635	-277.135162	1457.001221	1198.937134	-281.515747	1292.746704	1002.786072	-21.115475	1389.279785	962.886230	-521.660156	1348.367065	780.114716	21.044681	1497.735352	775.780182	-481.235626	1397.481934	855.745667	-160.906403	1341.623779	873.807739	-421.196228	1212.754395	905.191650	-206.367599	1194.101440	907.082642	-311.515625	1203.427917	906.137146	-258.941612	1237.491211	1088.512817	-269.108643	1469.652954	1005.885559	-296.536987	1400.326294	603.193237	-43.588089	1507.454590	448.232819	-104.213242	1447.740356	308.357239	-35.340691	1341.830444	107.093658	-82.587349	1292.267822	109.285233	-132.493988	1447.346802	51.728859	-120.631676	1333.240234	582.993835	-500.365692	1396.775879	413.673340	-407.959198	1328.491089	270.120941	-458.125702	1274.968384	55.375385	-368.254822	1235.353271	56.173649	-318.240753	1411.027954	35.205032	-348.435364
545	5.44000000	1403.182617	1286.805054	-125.783051	1383.352417	1283.653442	-448.535034	1342.516235	1344.347900	-276.495270	1461.260376	1198.401123	-281.337830	1296.356079	1002.396973	-21.182335	1392.820923	963.132874	-521.730042	1350.078308	779.334961	21.520227	1501.358398	775.886566	-482.655869	1401.115234	855.473328	-161.443649	1344.319702	873.722290	-421.510803	1216.470947	905.365295	-206.281067	1197.483643	907.365356	-311.334900	1206.977295	906.365326	-258.807983	1241.439575	1088.603271	-268.758240	1473.362793	1005.517883	-296.841125	1403.264771	603.936768	-43.512711	1511.223877	448.989227	-104.236061	1457.569214	306.802399	-35.642654	1362.553223	100.447632	-84.041023	1313.022583	100.401245	-134.042435	1470.562866	50.669579	-122.246986	1334.274292	582.881958	-500.599457	1397.877075	413.368866	-408.366608	1329.043579	269.990540	-458.334320	1274.993286	55.404564	-368.280579	1235.438232	56.296192	-318.297577	1411.043091	35.193901	-348.496643
546	5.45000000	1408.024414	1286.075073	-125.275093	1387.478882	1283.835938	-448.019806	1347.189331	1344.166016	-275.717499	1465.518921	1197.884277	-281.104523	1300.100098	1001.985046	-21.115086	1396.242432	963.419983	-521.702148	1352.029785	778.550232	22.018543	1504.844849	776.045929	-483.890305	1404.794678	855.163269	-161.899460	1347.051147	873.668030	-421.716461	1220.245361	905.526184	-206.069092	1200.901855	907.651367	-311.023560	1210.573608	906.588776	-258.546326	1245.406250	1088.681885	-268.266754	1477.098145	1005.184814	-297.136200	1406.586182	604.785889	-43.231827	1514.481445	449.366608	-104.335602	1467.072998	305.219147	-36.005436	1383.487549	94.167618	-85.478516	1334.068359	91.877373	-135.553757	1493.773560	50.088772	-123.856445	1335.285767	582.848633	-500.832336	1398.915039	413.081573	-408.773163	1329.523804	269.878479	-458.548767	1275.010010	55.433765	-368.311401	1235.524780	56.419239	-318.369598	1411.051270	35.185989	-348.560394
